<svg width="1024" height="1024" viewBox="0 0 1024 1024" fill="none" xmlns="http://www.w3.org/2000/svg">
<rect width="1024" height="1024" fill="black"/>
<path d="M622.457 204H405.6V234.504H622.457V204Z" fill="white"/>
<path d="M616.556 209.881H411.48V228.602H616.556V209.881Z" fill="white"/>
<path d="M340.461 287.255C361.988 295.768 381.3 305.714 399.477 315.086C437.294 334.583 469.942 351.41 511.797 351.41C553.654 351.41 586.302 334.582 624.104 315.092C642.288 305.715 661.605 295.768 683.134 287.255C672.559 276.225 662.028 262.371 659.312 248.76H364.283C361.566 262.371 351.035 276.225 340.461 287.255Z" fill="white"/>
<path d="M511.796 345.507C471.366 345.507 439.304 328.978 402.175 309.837C386.667 301.84 369.338 292.906 350.5 284.977C359.771 274.253 365.921 264.093 368.85 254.641H654.746C657.677 264.088 663.824 274.253 673.098 284.977C654.197 292.928 636.894 301.851 621.404 309.842C584.289 328.978 552.238 345.507 511.796 345.507Z" fill="white"/>
<path d="M706.764 653.898C716.036 684.708 757.353 679.206 804.6 679.206C851.847 679.206 889.345 684.707 898.617 653.898L899.223 653.744L898.966 652.73C899.827 649.589 900.386 646.375 900.6 643.099H896.526L815.754 324.271C826.686 318.952 834.24 307.77 834.24 294.796C834.24 276.683 819.557 262 801.444 262C786.879 262 774.548 271.502 770.27 284.641C713.026 289.627 670.481 311.552 632.413 331.181C594.173 350.897 558.053 369.521 511.8 369.521C465.548 369.521 429.428 350.897 391.188 331.181C353.119 311.553 310.573 289.629 253.33 284.641C249.052 271.502 236.721 262 222.155 262C204.043 262 189.36 276.684 189.36 294.796C189.36 307.77 196.914 318.952 207.846 324.271L127.074 643.099H123C123.214 646.376 123.772 649.591 124.635 652.73L124.378 653.744L124.985 653.898C134.257 684.708 172.963 679.206 220.209 679.206C267.456 679.206 307.566 684.707 316.838 653.898L317.445 653.744L317.188 652.73C318.05 649.589 318.608 646.375 318.822 643.099H314.748L234.234 325.288C242.558 321.983 249.206 315.365 252.559 307.063C304.666 311.799 343.352 331.737 380.917 351.105C406.006 364.042 430.249 376.518 457.244 384.206H315.607C315.607 384.206 358.385 415.117 364.287 444.708H659.317C665.218 415.117 707.997 384.206 707.997 384.206H566.36C593.355 376.519 617.598 364.042 642.688 351.105C680.252 331.738 718.938 311.799 771.046 307.063C774.4 315.366 781.047 321.983 789.37 325.29L708.856 643.099H704.782C704.996 646.376 705.554 649.591 706.416 652.73L706.159 653.744L706.764 653.898ZM804.6 328.806L886.248 643.099H803.011L804.6 328.806ZM220.209 643.099H137.352L223.8 328.806L220.209 643.099ZM304.466 643.099H220.209L223.8 328.806L304.466 643.099ZM804.6 328.806L803.011 643.099H719.134L804.6 328.806Z" fill="white"/>
<path d="M363.002 818.402V482.402H435.002L582.362 703.202V482.402H654.362V818.402H582.362L435.002 598.562V818.402H363.002Z" fill="white"/>
<rect x="61.12" y="61.12" width="900.76" height="900.76" stroke="white" strokeWidth="10.24"/>
</svg>
