<svg width="24" height="24" viewBox="0 0 24 24" fill="none" xmlns="http://www.w3.org/2000/svg">
<g clipPath="url(#clip0_13144_23569)">
<path d="M13.9039 9.23364L22.2944 10.9003C22.9706 11.0432 23.4277 11.6146 23.4277 12.2908V22.0051C23.4277 22.7955 22.7896 23.4336 21.9992 23.4336H13.4277C13.6944 23.4336 13.9039 23.2241 13.9039 22.9575V22.4813H21.9992C22.2563 22.4813 22.4754 22.2717 22.4754 22.0051V12.2908C22.4754 12.0717 22.323 11.8717 22.1039 11.8241L13.9039 10.2051V9.23364Z" fill="white"/>
<path d="M19.1417 13.9099C19.4084 13.9099 19.6179 14.1194 19.6179 14.3861C19.6179 14.6528 19.4084 14.8623 19.1417 14.8623H17.2369C16.9703 14.8623 16.7607 14.6528 16.7607 14.3861C16.7607 14.1194 16.9703 13.9099 17.2369 13.9099H19.1417Z" fill="white"/>
<path d="M19.1417 16.7668C19.4084 16.7668 19.6179 16.9764 19.6179 17.243C19.6179 17.5097 19.4084 17.7192 19.1417 17.7192H17.2369C16.9703 17.7192 16.7607 17.5097 16.7607 17.243C16.7607 16.9764 16.9703 16.7668 17.2369 16.7668H19.1417Z" fill="white"/>
<path d="M19.1417 19.6243C19.4084 19.6243 19.6179 19.8338 19.6179 20.1005C19.6179 20.3671 19.4084 20.5766 19.1417 20.5766H17.2369C16.9703 20.5766 16.7607 20.3671 16.7607 20.1005C16.7607 19.8338 16.9703 19.6243 17.2369 19.6243H19.1417Z" fill="white"/>
<path d="M13.9045 22.9537C13.9045 23.2203 13.695 23.4299 13.4283 23.4299C13.1617 23.4299 12.9521 23.2203 12.9521 22.9537V22.4775V9.62033C12.9521 9.47748 13.0188 9.34414 13.1236 9.24891C13.2379 9.16319 13.3807 9.1251 13.5236 9.15367L13.9045 9.22986V10.2013V22.4775V22.9537Z" fill="white"/>
<path d="M12.9515 22.4814V22.9576C12.9515 23.2243 13.161 23.4338 13.4277 23.4338H9.61816C9.88483 23.4338 10.0944 23.2243 10.0944 22.9576V22.4814H12.9515Z" fill="white"/>
<path d="M10.5704 5.33862C10.8371 5.33862 11.0466 5.54815 11.0466 5.81481C11.0466 6.08148 10.8371 6.291 10.5704 6.291H8.66564C8.39898 6.291 8.18945 6.08148 8.18945 5.81481C8.18945 5.54815 8.39898 5.33862 8.66564 5.33862H10.5704Z" fill="white"/>
<path d="M11.0466 8.67175C11.0466 8.93841 10.8371 9.14794 10.5704 9.14794H8.66564C8.39898 9.14794 8.18945 8.93841 8.18945 8.67175C8.18945 8.40508 8.39898 8.19556 8.66564 8.19556H10.5704C10.8371 8.19556 11.0466 8.40508 11.0466 8.67175Z" fill="white"/>
<path d="M10.5704 11.053C10.8371 11.053 11.0466 11.2625 11.0466 11.5292C11.0466 11.7958 10.8371 12.0054 10.5704 12.0054H8.66564C8.39898 12.0054 8.18945 11.7958 8.18945 11.5292C8.18945 11.2625 8.39898 11.053 8.66564 11.053H10.5704Z" fill="white"/>
<path d="M10.5704 13.9099C10.8371 13.9099 11.0466 14.1194 11.0466 14.3861C11.0466 14.6528 10.8371 14.8623 10.5704 14.8623H8.66564C8.39898 14.8623 8.18945 14.6528 8.18945 14.3861C8.18945 14.1194 8.39898 13.9099 8.66564 13.9099H10.5704Z" fill="white"/>
<path d="M6.28488 14.3861C6.28488 14.6528 6.07535 14.8623 5.80869 14.8623H3.90392C3.63726 14.8623 3.42773 14.6528 3.42773 14.3861C3.42773 14.1194 3.63726 13.9099 3.90392 13.9099H5.80869C6.07535 13.9099 6.28488 14.1194 6.28488 14.3861Z" fill="white"/>
<path d="M5.80869 5.33838C6.07535 5.33838 6.28488 5.5479 6.28488 5.81457C6.28488 6.08124 6.07535 6.29076 5.80869 6.29076H3.90392C3.63726 6.29076 3.42773 6.08124 3.42773 5.81457C3.42773 5.5479 3.63726 5.33838 3.90392 5.33838H5.80869Z" fill="white"/>
<path d="M5.80869 8.19556C6.07535 8.19556 6.28488 8.40508 6.28488 8.67175C6.28488 8.93841 6.07535 9.14794 5.80869 9.14794H3.90392C3.63726 9.14794 3.42773 8.93841 3.42773 8.67175C3.42773 8.40508 3.63726 8.19556 3.90392 8.19556H5.80869Z" fill="white"/>
<path d="M5.80869 11.0527C6.07535 11.0527 6.28488 11.2623 6.28488 11.5289C6.28488 11.7956 6.07535 12.0051 5.80869 12.0051H3.90392C3.63726 12.0051 3.42773 11.7956 3.42773 11.5289C3.42773 11.2623 3.63726 11.0527 3.90392 11.0527H5.80869Z" fill="white"/>
<path d="M9.14276 18.1954C9.14276 17.9288 8.92372 17.7192 8.66657 17.7192H5.80943C5.54276 17.7192 5.33324 17.9288 5.33324 18.1954V22.4811H4.38086V18.1954C4.38086 17.4049 5.01895 16.7668 5.80943 16.7668H8.66657C9.45705 16.7668 10.0951 17.4049 10.0951 18.1954V22.4811H9.14276V18.1954Z" fill="white"/>
<path d="M5.33324 22.4812H9.14276H10.0951V22.9574C10.0951 23.2241 9.88562 23.4336 9.61895 23.4336H4.85705C4.59038 23.4336 4.38086 23.2241 4.38086 22.9574V22.4812H5.33324Z" fill="white"/>
<path d="M2.23747 0.764391L12.7041 2.35487C13.3994 2.46915 13.9041 3.05963 13.9041 3.76439V9.23106L13.5232 9.15487C13.3803 9.1263 13.2375 9.16439 13.1232 9.2501C13.0184 9.34534 12.9518 9.47868 12.9518 9.62153V3.76439C12.9518 3.5263 12.7803 3.3263 12.5518 3.2882L2.08509 1.70725C2.05652 1.69772 2.02794 1.69772 1.99937 1.69772C1.88509 1.69772 1.78032 1.73582 1.69461 1.81201C1.58032 1.90725 1.52318 2.03106 1.52318 2.17392V22.0025C1.52318 22.2692 1.74223 22.4787 1.99937 22.4787H4.38032V22.9549C4.38032 23.2215 4.58985 23.4311 4.85652 23.4311H1.99937C1.2089 23.4311 0.570801 22.793 0.570801 22.0025V2.17392C0.570801 1.75487 0.751753 1.35487 1.07556 1.0882C1.39937 0.812011 1.81842 0.697725 2.23747 0.764391Z" fill="white"/>
</g>
<defs>
<clipPath id="clip0_13144_23569">
<rect width="22.8571" height="22.8571" fill="white" transform="translate(0.571289 0.571533)"/>
</clipPath>
</defs>
</svg>
